<mxfile host="app.diagrams.net" modified="2025-10-19T10:07:00.000Z" agent="Draw.io" version="22.0.0" etag="system-architecture-simplified" type="device">
  <diagram name="System Architecture - Simplified" id="system-arch-simple">
    <mxGraphModel dx="1200" dy="800" grid="1" gridSize="10" guides="1" tooltips="1" connect="1" arrows="1" fold="1" page="1" pageScale="1" pageWidth="1100" pageHeight="850" math="0" shadow="0">
      <root>
        <mxCell id="0" />
        <mxCell id="1" parent="0" />
        
        <!-- Title -->
        <mxCell id="title" value="Spa Management System Architecture" style="text;html=1;strokeColor=none;fillColor=none;align=center;verticalAlign=middle;whiteSpace=wrap;rounded=0;fontSize=20;fontStyle=1;" vertex="1" parent="1">
          <mxGeometry x="300" y="20" width="500" height="40" as="geometry" />
        </mxCell>
        
        <!-- PRESENTATION TIER -->
        <mxCell id="presentation-tier" value="" style="rounded=0;whiteSpace=wrap;html=1;fillColor=#dae8fc;strokeColor=#6c8ebf;strokeWidth=3;" vertex="1" parent="1">
          <mxGeometry x="100" y="80" width="900" height="140" as="geometry" />
        </mxCell>
        
        <mxCell id="pres-title" value="PRESENTATION TIER" style="text;html=1;strokeColor=none;fillColor=none;align=center;verticalAlign=middle;whiteSpace=wrap;rounded=0;fontSize=16;fontStyle=1;" vertex="1" parent="1">
          <mxGeometry x="100" y="85" width="900" height="30" as="geometry" />
        </mxCell>
        
        <!-- Client Boxes -->
        <mxCell id="client-customer" value="Customer&lt;br&gt;Client" style="rounded=1;whiteSpace=wrap;html=1;fillColor=#fff2cc;strokeColor=#d6b656;fontSize=13;fontStyle=1;strokeWidth=2;" vertex="1" parent="1">
          <mxGeometry x="140" y="130" width="160" height="70" as="geometry" />
        </mxCell>
        
        <mxCell id="client-therapist" value="Therapist&lt;br&gt;Client" style="rounded=1;whiteSpace=wrap;html=1;fillColor=#fff2cc;strokeColor=#d6b656;fontSize=13;fontStyle=1;strokeWidth=2;" vertex="1" parent="1">
          <mxGeometry x="340" y="130" width="160" height="70" as="geometry" />
        </mxCell>
        
        <mxCell id="client-cashier" value="Cashier&lt;br&gt;Client" style="rounded=1;whiteSpace=wrap;html=1;fillColor=#fff2cc;strokeColor=#d6b656;fontSize=13;fontStyle=1;strokeWidth=2;" vertex="1" parent="1">
          <mxGeometry x="540" y="130" width="160" height="70" as="geometry" />
        </mxCell>
        
        <mxCell id="client-monitor" value="Monitor&lt;br&gt;Display" style="rounded=1;whiteSpace=wrap;html=1;fillColor=#fff2cc;strokeColor=#d6b656;fontSize=13;fontStyle=1;strokeWidth=2;" vertex="1" parent="1">
          <mxGeometry x="740" y="130" width="160" height="70" as="geometry" />
        </mxCell>
        
        <!-- Communication Arrow 1 -->
        <mxCell id="comm-arrow-1" value="" style="edgeStyle=orthogonalEdgeStyle;rounded=0;orthogonalLoop=1;jettySize=auto;html=1;strokeWidth=4;endArrow=block;endFill=1;strokeColor=#6c8ebf;" edge="1" parent="1">
          <mxGeometry relative="1" as="geometry">
            <mxPoint x="550" y="220" as="sourcePoint" />
            <mxPoint x="550" y="280" as="targetPoint" />
          </mxGeometry>
        </mxCell>
        
        <mxCell id="comm-label-1" value="HTTP/HTTPS + WebSocket" style="text;html=1;strokeColor=none;fillColor=none;align=center;verticalAlign=middle;whiteSpace=wrap;rounded=0;fontSize=12;fontStyle=2;" vertex="1" parent="1">
          <mxGeometry x="400" y="235" width="300" height="30" as="geometry" />
        </mxCell>
        
        <!-- APPLICATION TIER -->
        <mxCell id="application-tier" value="" style="rounded=0;whiteSpace=wrap;html=1;fillColor=#d5e8d4;strokeColor=#82b366;strokeWidth=3;" vertex="1" parent="1">
          <mxGeometry x="100" y="280" width="900" height="260" as="geometry" />
        </mxCell>
        
        <mxCell id="app-title" value="APPLICATION TIER" style="text;html=1;strokeColor=none;fillColor=none;align=center;verticalAlign=middle;whiteSpace=wrap;rounded=0;fontSize=16;fontStyle=1;" vertex="1" parent="1">
          <mxGeometry x="100" y="285" width="900" height="30" as="geometry" />
        </mxCell>
        
        <!-- Flask Server -->
        <mxCell id="flask-main" value="Flask Web Server&lt;br&gt;(Python 3.x)&lt;br&gt;localhost:5000" style="rounded=1;whiteSpace=wrap;html=1;fillColor=#e1d5e7;strokeColor=#9673a6;fontSize=14;fontStyle=1;strokeWidth=2;" vertex="1" parent="1">
          <mxGeometry x="350" y="330" width="400" height="60" as="geometry" />
        </mxCell>
        
        <!-- Three Main Components -->
        <mxCell id="comp-blueprints" value="Flask Blueprints&lt;br&gt;&lt;br&gt;6 Modules:&lt;br&gt;Customer, Therapist,&lt;br&gt;Cashier, Auth,&lt;br&gt;Monitor, Snapshot" style="rounded=1;whiteSpace=wrap;html=1;fillColor=#f8cecc;strokeColor=#b85450;fontSize=12;strokeWidth=2;align=center;" vertex="1" parent="1">
          <mxGeometry x="140" y="420" width="240" height="100" as="geometry" />
        </mxCell>
        
        <mxCell id="comp-socketio" value="Flask-SocketIO&lt;br&gt;v5.3.6&lt;br&gt;&lt;br&gt;Real-time&lt;br&gt;Communication" style="rounded=1;whiteSpace=wrap;html=1;fillColor=#f8cecc;strokeColor=#b85450;fontSize=12;strokeWidth=2;align=center;" vertex="1" parent="1">
          <mxGeometry x="430" y="420" width="240" height="100" as="geometry" />
        </mxCell>
        
        <mxCell id="comp-sqlalchemy" value="SQLAlchemy ORM&lt;br&gt;v2.0.31&lt;br&gt;&lt;br&gt;Database&lt;br&gt;Operations" style="rounded=1;whiteSpace=wrap;html=1;fillColor=#f8cecc;strokeColor=#b85450;fontSize=12;strokeWidth=2;align=center;" vertex="1" parent="1">
          <mxGeometry x="720" y="420" width="240" height="100" as="geometry" />
        </mxCell>
        
        <!-- Arrows from Flask to components -->
        <mxCell id="arrow-to-blueprints" value="" style="edgeStyle=orthogonalEdgeStyle;rounded=0;orthogonalLoop=1;jettySize=auto;html=1;strokeWidth=2;endArrow=classic;endFill=1;strokeColor=#82b366;" edge="1" parent="1" source="flask-main" target="comp-blueprints">
          <mxGeometry relative="1" as="geometry" />
        </mxCell>
        
        <mxCell id="arrow-to-socketio" value="" style="edgeStyle=orthogonalEdgeStyle;rounded=0;orthogonalLoop=1;jettySize=auto;html=1;strokeWidth=2;endArrow=classic;endFill=1;strokeColor=#82b366;" edge="1" parent="1" source="flask-main" target="comp-socketio">
          <mxGeometry relative="1" as="geometry" />
        </mxCell>
        
        <mxCell id="arrow-to-sqlalchemy" value="" style="edgeStyle=orthogonalEdgeStyle;rounded=0;orthogonalLoop=1;jettySize=auto;html=1;strokeWidth=2;endArrow=classic;endFill=1;strokeColor=#82b366;" edge="1" parent="1" source="flask-main" target="comp-sqlalchemy">
          <mxGeometry relative="1" as="geometry" />
        </mxCell>
        
        <!-- Communication Arrow 2 -->
        <mxCell id="comm-arrow-2" value="" style="edgeStyle=orthogonalEdgeStyle;rounded=0;orthogonalLoop=1;jettySize=auto;html=1;strokeWidth=4;endArrow=block;endFill=1;strokeColor=#82b366;" edge="1" parent="1">
          <mxGeometry relative="1" as="geometry">
            <mxPoint x="550" y="540" as="sourcePoint" />
            <mxPoint x="550" y="600" as="targetPoint" />
          </mxGeometry>
        </mxCell>
        
        <mxCell id="comm-label-2" value="SQL Queries" style="text;html=1;strokeColor=none;fillColor=none;align=center;verticalAlign=middle;whiteSpace=wrap;rounded=0;fontSize=12;fontStyle=2;" vertex="1" parent="1">
          <mxGeometry x="400" y="555" width="300" height="30" as="geometry" />
        </mxCell>
        
        <!-- DATA TIER -->
        <mxCell id="data-tier" value="" style="rounded=0;whiteSpace=wrap;html=1;fillColor=#f5f5f5;strokeColor=#666666;strokeWidth=3;fontColor=#333333;" vertex="1" parent="1">
          <mxGeometry x="100" y="600" width="900" height="200" as="geometry" />
        </mxCell>
        
        <mxCell id="data-title" value="DATA TIER" style="text;html=1;strokeColor=none;fillColor=none;align=center;verticalAlign=middle;whiteSpace=wrap;rounded=0;fontSize=16;fontStyle=1;fontColor=#333333;" vertex="1" parent="1">
          <mxGeometry x="100" y="605" width="900" height="30" as="geometry" />
        </mxCell>
        
        <!-- MySQL Server -->
        <mxCell id="mysql-main" value="MySQL Database Server&lt;br&gt;(XAMPP)&lt;br&gt;localhost:3306" style="rounded=1;whiteSpace=wrap;html=1;fillColor=#e1d5e7;strokeColor=#9673a6;fontSize=14;fontStyle=1;strokeWidth=2;" vertex="1" parent="1">
          <mxGeometry x="350" y="650" width="400" height="60" as="geometry" />
        </mxCell>
        
        <!-- Database Entities Summary -->
        <mxCell id="entities-box" value="10 Database Entities:&lt;br&gt;&lt;br&gt;Therapist • Cashier • Transaction • Payment&lt;br&gt;Service • ServiceCategory • ServiceClassification&lt;br&gt;Room • TransactionItem • TransactionCounter" style="rounded=0;whiteSpace=wrap;html=1;fillColor=#dae8fc;strokeColor=#6c8ebf;fontSize=11;strokeWidth=2;align=center;" vertex="1" parent="1">
          <mxGeometry x="200" y="730" width="700" height="60" as="geometry" />
        </mxCell>
        
        <!-- Arrow from MySQL to entities -->
        <mxCell id="arrow-mysql-entities" value="" style="edgeStyle=orthogonalEdgeStyle;rounded=0;orthogonalLoop=1;jettySize=auto;html=1;strokeWidth=2;endArrow=classic;endFill=1;strokeColor=#666666;" edge="1" parent="1" source="mysql-main" target="entities-box">
          <mxGeometry relative="1" as="geometry" />
        </mxCell>
        
      </root>
    </mxGraphModel>
  </diagram>
</mxfile>
